<?xml version="1.0" standalone="no"?>
<!DOCTYPE svg PUBLIC "-//W3C//DTD SVG 1.1//EN" "http://www.w3.org/Graphics/SVG/1.1/DTD/svg11.dtd">
<svg xmlns="http://www.w3.org/2000/svg">
<metadata>Generated by Fontastic.me</metadata>
<defs>
<font id="blink" horiz-adv-x="512">
<font-face font-family="blink" units-per-em="512" ascent="480" descent="-32"/>
<missing-glyph horiz-adv-x="512" />

<glyph glyph-name="header-alarm" unicode="&#97;" d="M473 85c-16 29-33 58-49 87-3 4-5 12-5 18 0 36 0 73 0 108 0 12-1 24-3 37-12 59-44 103-103 122-6 1-11 4-17 4 1 3 1 5 1 9 0 22-17 40-40 40-23 0-39-17-39-39 0-4 0-5 1-9-21-5-41-14-58-26-44-32-64-78-65-131-1-38 0-77 0-115 0-6-1-12-5-16-9-16-17-34-26-49-11-17-20-36-30-54l444 0c-4 1-5 11-6 14z m-259-74c31-16 62-18 90 0 16 10 26 24 26 42l-148 0c1-18 13-33 32-42z"/>
<glyph glyph-name="header-alarm2" unicode="&#98;" d="M473 85c-16 29-33 58-49 87-3 4-5 12-5 18 0 36 0 73 0 108 0 12-1 24-3 37-12 59-44 103-103 122-6 1-11 4-17 4 1 3 1 5 1 9 0 22-17 40-40 40-23 0-39-17-39-39 0-4 0-5 1-9-21-5-41-14-58-26-44-32-64-78-65-131-1-38 0-77 0-115 0-6-1-12-5-16-9-16-17-34-26-49-11-17-20-36-30-54l444 0c-4 1-5 11-6 14z m-259-74c31-16 62-18 90 0 16 10 26 24 26 42l-148 0c1-18 13-33 32-42z m263 400c0-55-44-99-99-99-54 0-98 44-98 99 0 54 44 98 98 98 55 0 99-44 99-98z"/>
<glyph glyph-name="header-apply" unicode="&#99;" d="M168 219l-122 122-41-41 163-163 349 348-42 42z"/>
<glyph glyph-name="header-arrow-back" unicode="&#100;" d="M512 287l-390 0 180 179-46 46-256-256 256-256 46 46-180 178 390 0z"/>
<glyph glyph-name="header-delete" unicode="&#101;" d="M79 57c0-31 31-57 62-57l228 0c31 0 62 25 62 57l0 336-353 0 0-336z m374 435l-97 0-29 20-142 0-29-20-97 0 0-59 393 0 0 59z"/>
<glyph glyph-name="header-edit" unicode="&#102;" d="M0 64l0 288c0 35 28 61 64 61l196 0-63-58-138 0 0-296 296 0 0 138 58 63 0-196c0-35-26-64-61-64l-288 0c-35 0-64 28-64 64z m464 448c-14 0-25-6-34-14l-228-232c-7-6-11-16-16-24l-23-69c-1-4 1-7 4-8 1 0 3 0 4 0l69 24c9 3 18 9 25 16l231 227c18 18 18 49 0 69-8 5-19 11-32 11z"/>
<glyph glyph-name="header-menu" unicode="&#103;" d="M-2 446l512 0 0-67-512 0z m0-157l357 0 0-66-357 0z m0-155l178 0 0-67-178 0z"/>
<glyph glyph-name="header-pause" unicode="&#104;" d="M110 0c41 0 73 32 73 73l0 365c0 41-32 73-73 73-41 1-73-32-73-73l0-366c0-40 32-72 73-72z m219 438l0-366c0-41 32-73 73-73 41 0 73 32 73 73l0 366c0 41-32 73-73 73-41 1-73-32-73-73z"/>
<glyph glyph-name="header-play" unicode="&#105;" d="M459 302l-354 203c-35 20-78-5-78-46l0-407c0-41 44-65 78-45l354 203c36 21 36 71 0 92z"/>
<glyph glyph-name="header-refresh" unicode="&#106;" d="M227 102l60-51-60-51 0 32c-108 15-193 110-193 224 0 79 40 148 101 188 13 9 32-1 32-17 0-7-4-14-10-17-50-34-81-90-81-154 0-91 66-167 152-182l0 28z m58 410l-60-51 60-51 0 28c86-15 152-90 152-182 0-64-33-120-81-154-6-3-8-10-8-17 0-16 18-26 32-17 59 40 99 109 99 188 0 114-85 209-193 224l0 32z"/>
<glyph glyph-name="menu-alarms" unicode="&#107;" d="M256 512c-142 0-256-114-256-256 0-142 114-256 256-256 142 0 256 114 256 256 0 142-114 256-256 256z m75-359l-38 0c0-20-17-38-38-38-21 0-38 18-38 38l-38 0c-13 0-28 9-35 21-10 18-7 43 11 54 0 3 0 48 0 48 0 42 31 79 72 91 0 3 1 4 1 7 1 13 14 23 28 20 14-2 27-14 24-27 40-10 72-48 72-91l0-48c0-7 17-21 17-35 3-22-17-40-38-40z"/>
<glyph glyph-name="menu-home" unicode="&#108;" d="M256 512c-142 0-256-114-256-256 0-142 114-256 256-256 142 0 256 114 256 256 0 142-114 256-256 256z m99-387l-79 0 0 79-40 0 0-79-79 0 0 164 99 80 99-80z"/>
<glyph glyph-name="menu-profile" unicode="&#109;" d="M221 512l-18-62c-16-3-31-10-46-18l-56 32-52-52 32-56c-8-15-15-31-18-46l-63-19 0-71 62-18c3-16 10-31 18-46l-32-56 52-52 56 32c15-8 31-15 46-18l18-62 71 0 18 62c16 3 31 10 46 18l56-32 52 52-32 56c8 15 15 31 18 46l62 18 0 71-62 18c-3 16-10 31-18 46l32 56-52 52-56-32c-15 8-31 15-46 18l-18 63c0 0-70 0-70 0z m35-139c64 0 117-53 117-117 0-64-53-117-117-117-64 0-117 53-117 117 0 64 53 117 117 117z m0-71c-27 0-46-21-46-46 0-25 21-46 46-46 25 0 46 21 46 46 0 25-19 46-46 46z"/>
<glyph glyph-name="menu-signout" unicode="&#110;" d="M256 512c-142 0-256-114-256-256 0-142 114-256 256-256 142 0 256 114 256 256 0 142-114 256-256 256z m-20-126c0 10 10 20 20 20 6 0 10-3 14-7 4-4 6-7 6-13l0-10c0-44 0-91 0-136 0-11-10-20-20-20-10 0-20 9-20 20 0 17 0 34 0 51 0 7 0 14 0 21l0 6c0 5 0 10 0 14 0 20 0 37 0 54z m47-277c-78-14-151 35-165 113l0 1c-8 47 3 91 37 126 4 4 10 7 15 7 4 0 10-3 13-6 4-4 7-10 7-14 0-6-3-11-6-15-16-16-25-35-29-56-7-57 32-109 89-116 57-8 108 31 115 88 4 33-5 61-28 84-7 7-8 14-6 21 3 11 14 17 25 14 3-1 7-3 7-6 25-25 38-55 41-89 0-3 0-6 0-8 0-1 0-3 0-4 0-71-47-127-115-140z"/>
<glyph glyph-name="other-arrow" unicode="&#112;" d="M112 32l255 255 32-32-255-255z m0 448l32 32 256-255-32-33z"/>
<glyph glyph-name="other-layers" unicode="&#113;" d="M512 256c0-141-115-256-256-256-141 0-256 115-256 256 0 141 115 256 256 256 141 0 256-115 256-256z m-256-101l-107 82-24-18 131-101 131 101-24 18z m0 37l107 83 24 18-131 101-131-101 24-18z"/>
<glyph glyph-name="other-remove" unicode="&#114;" d="M437 437c-99 100-263 100-362 0-100-99-100-263 0-362 99-100 263-100 362 0 100 99 100 263 0 362z m-86-274c0-2 0-2 0 0-4-4-10-7-14-7-6 0-11 3-15 7l-64 66-65-66c-3-4-9-7-14-7-5 0-10 3-14 7-8 8-8 21-1 29 0 0 0 0 1 0l65 65-65 64c-8 8-8 21 0 29 8 7 21 7 28 0l65-66 64 66c8 7 21 7 29 0 7-8 7-21 0-29l-67-64 66-65c8-8 8-21 1-29z"/>
<glyph glyph-name="status-address" unicode="&#115;" d="M256 512c-106 0-192-85-192-192 0-160 175-320 192-320 13 0 192 160 192 320 0 107-86 192-192 192z m0-266c-41 0-75 33-75 74 0 42 33 75 75 75 42 0 75-33 75-75 0-41-34-74-75-74z"/>
<glyph glyph-name="status-cell" unicode="&#116;" d="M494 30c-10 0-18 9-18 18l0 336c0 10 9 18 18 18 10 0 18-9 18-18l0-336c0-10-9-18-18-18z m-192 0c-10 0-18 9-18 18l0 170c0 11 9 18 18 18 11 0 18-8 18-18l0-170c0-10-8-18-18-18z m96 0c-10 0-18 9-18 18l0 255c0 11 9 18 18 18 11 0 18-8 18-18l0-255c0-10-8-18-18-18z m-176 436c0 0 0 0 0 1 0 1 0 1-1 2 0 1-1 2-1 3 0 1-1 1-1 2 0 0-1 1-1 1 0 0-1 1-1 1 0 0-1 1-1 1 0 0-1 1-1 1 0 0 0 0-1 0 0 0-1 1-1 1 0 0-1 0-1 1 0 0-1 0-1 0 0 0-1 0-1 0-1 1-3 1-5 1l-187 0c-2 0-4 0-6-1 0 0-1 0-1 0 0 0-1 0-1 0 0 0-1 0-1-1 0 0 0 0 0-1 0 0 0 0-1 0 0 0-1-1-1-1 0 0-1-1-1-1 0 0-1-1-1-1 0 0-1-1-1-1 0-1-1-1-1-2-1-1-2-2-2-3 0-1 0-1-1-2 0-1 0-1 0-1 0-1 0-1 0-2 0-2 0-4 1-6 0-1 0-1 1-2 0 0 0-1 0-1 0 0 0-1 1-1 1-1 2-3 4-4l85-73 0-328c0-10 9-18 18-18 9 0 18 9 18 18l0 327 85 73c1 1 3 3 4 4 0 0 0 1 1 1 0 1 1 1 1 2 0 1 0 1 1 2 1 2 1 4 1 6 1 1 1 1 1 2z m-111-57l-43 37 86 0z m96-379c-11 0-18 9-18 18l0 90c0 11 8 18 18 18 9 0 18-8 18-18l0-90c0-10-8-18-18-18z"/>
<glyph glyph-name="status-date" unicode="&#117;" d="M463 448l-32 0 0 23c0 22-18 39-38 39-21 0-39-18-39-39l0-23-194 0 0 23c0 22-18 39-39 39-20 0-39-18-39-39l0-23-32 0c-26 0-48-21-48-49l0-351c0-26 21-48 48-48l415 0c26 0 48 21 48 48l0 352c-2 27-23 48-50 48z m-16-383l-383 0 0 272 383 0z m-335 176l0 31c0 10 7 16 16 16l31 0c10 0 16-6 16-16l0-31c0-10-6-16-16-16l-31 0c-9 0-16 6-16 16z m112 0l0 31c0 10 6 16 16 16l31 0c10 0 16-6 16-16l0-31c0-10-6-16-16-16l-31 0c-10 0-16 6-16 16z m112 0l0 31c0 10 6 16 16 16l31 0c10 0 16-6 16-16l0-31c0-10-6-16-16-16l-32 0c-9 0-15 6-15 16z m-224-113l0 31c0 10 7 16 16 16l31 0c10 0 16-6 16-16l0-31c0-9-6-16-16-16l-31 0c-9 0-16 8-16 16z m112 0l0 31c0 10 6 16 16 16l31 0c10 0 16-6 16-16l0-31c0-9-6-16-16-16l-31 0c-10 0-16 8-16 16z"/>
<glyph glyph-name="status-engine-hours" unicode="&#118;" d="M256 512c-142 0-256-114-256-256 0-142 114-256 256-256 142 0 256 114 256 256 0 142-114 256-256 256z m93-349c-4-4-10-6-14-6-6 0-11 1-15 6l-78 79c-4 4-6 9-6 14l0 137c0 11 10 20 20 20 10 0 20-9 20-20l0-129 74-74c6-6 6-19-1-27z"/>
<glyph glyph-name="status-geofence" unicode="&#119;" d="M256 515c-142 0-256-116-256-257 0-141 114-255 256-255 142 0 256 114 256 256 0 142-114 256-256 256z m0-462c-113 0-205 92-205 205 0 113 92 205 205 205 113 0 205-92 205-205 0-112-92-205-205-205z m0 273c-37 0-68-30-68-68 0-37 30-68 68-68 38 0 68 30 68 68-1 38-31 68-68 68z"/>
<glyph glyph-name="status-gps" unicode="&#120;" d="M370 362l-23-23c-5-4-5-13 0-18l23-22c5-5 13-5 18 0l23 22c4 5 4 14 0 18l-23 23c-5 5-13 5-18 0z m66-16l23 23c5 5 5 13 0 18l-23 24c-5 4-13 4-18 0l-23-23c-4-5-4-13 0-18l23-23c6-6 13-6 18-1z m72 90l-23 23c-4 5-13 5-18 0l-23-23c-5-5-5-13 0-18l22-23c5-4 14-4 19 0l22 23c6 5 6 13 1 18z m-188-89c5-5 14-5 18 0l23 23c5 5 5 13 0 18l-23 23c-4 4-13 4-18 0l-22-23c-5-5-5-13 0-18z m50 48c5-4 13-4 18 0l23 23c4 5 4 13 0 18l-23 23c-6 6-13 6-18 1l-24-24c-5-5-5-13 0-18z m48 49c5-5 13-5 18 0l23 22c5 5 5 14 0 19l-23 23c-5 5-13 5-18 0l-23-23c-4-4-4-13 0-18z m-324-376c-5 5-13 5-18 0l-23-22c-5-5-5-14 0-19l23-23c5-5 13-5 18 0l23 23c4 4 4 13 0 18z m48 49c-5 4-13 4-18 0l-23-23c-4-5-4-13 0-18l23-23c5-5 13-5 18 0l23 23c5 5 5 13 0 18z m50 48c-5 5-14 5-18 0l-24-23c-5-5-5-13 0-18l23-23c4-4 13-4 18 0l22 23c5 5 5 13 0 18z m-124-71l-22 23c-5 4-14 4-19 0l-22-23c-5-5-5-13 0-18l22-23c5-5 14-5 19 0l22 23c5 5 5 13 0 18z m8 7c5-4 13-4 18 0l23 23c4 5 4 13 0 18l-23 23c-6 6-13 6-18 1l-24-24c-5-5-5-13 0-18z m48 49c5-5 13-5 18 0l23 23c5 4 5 13 0 18l-23 23c-5 5-13 5-18 0l-23-22c-4-5-4-14 0-18z m265 76l-159 159c-4 5-13 5-18 0l-86-86c-5-5-5-14 0-18l158-160c5-4 14-4 18 0l87 87c4 4 4 13 0 18z m74-67c-32 22-75 19-103-9-27-28-31-71-9-103 5-5 13-5 19-1l94 94c4 5 4 15-1 19z m-24-59c-14 0-27-12-27-27 0-15 12-27 27-27 14 0 27 12 27 27 0 15-13 27-27 27z"/>
<glyph glyph-name="status-power" unicode="&#122;" d="M133 444c-113-69-150-215-82-328 68-113 215-150 328-82 113 68 149 215 81 328-20 33-49 62-82 82-3 2-13 6-21 0-11-12-11-21 0-28 98-57 132-182 75-279-57-98-182-132-279-75-98 57-131 182-74 279 18 32 43 57 75 75 11 7 11 16 0 28-8 7-18 2-21 0z m123 68c9 0 17-8 17-17l0-239c0-9-8-17-17-17-9 0-17 8-17 17l0 239c0 9 8 17 17 17z"/>
<glyph glyph-name="status-stationary-time" unicode="&#65;" d="M256 512c-140 0-256-116-256-256 0-140 116-256 256-256 140 0 256 116 256 256 0 140-116 256-256 256z m0-85c31 0 62-8 86-24l-233-233c-16 24-24 55-24 86 0 93 78 171 171 171z m0-342c-31 0-62 10-86 24l232 232c16-24 24-55 24-86 1-94-75-170-170-170z"/>
<glyph glyph-name="status-voltage" unicode="&#66;" d="M6 254l116 210c11 18 32 24 52 17 14-7 23-21 23-38l0-149 67 0c19 0 35-16 37-35 0-7-1-12-4-17l-117-211c-6-13-24-21-38-21-22 0-43 18-43 39l0 144-58 0c-20 0-35 18-35 38-4 9-3 16 0 23z m474 157l-69 0 0 70c0 16-7 28-21 31-17 4-33-8-37-25 0-2 0-3 0-6l0-70-61 0c-16 0-28-6-31-20-4-17 7-34 24-37 3 0 4 0 7 0l61 0 0-61c0-16 11-28 26-31 17-4 32 7 35 24 0 3-1 4-1 7l0 59 71 0c17 0 31 16 31 33 0 3 0 0-1 3-5 18-18 23-34 23z"/>
<glyph glyph-name="status-speed" unicode="&#67;" d="M285 184c0-16-13-29-29-29-16 0-29 13-29 29 0 16 13 29 29 29 16 0 29-13 29-29z m227-13c0 4 0 10 0 15 0 5 0 10 0 13-7 135-119 241-256 241-137 0-247-107-256-241 0-5 0-10 0-13 0-4 0-11 0-13 2-36 12-69 26-99l459 0c15 27 25 61 27 97z m-224-16c-17-18-44-18-59 0-18 17-18 44 0 59 15 16 168 108 168 108 0 0-95-153-109-167z"/>
<glyph glyph-name="status-temperature" unicode="&#68;" d="M403 431l-46 28 46 28z m-141-96l76 0 0-14-76 0z m0 66l49 0 0-13-49 0z m0 65l76 0 0-14-76 0z m0-196l49 0 0-13-49 0z m-15-102l0 296c0 25-21 47-48 47-25 0-47-21-47-47l0-298c-26-15-43-45-43-77 0-49 41-90 90-90 49 0 90 41 90 90 1 34-17 62-42 79z m15 36l76 0 0-13-76 0z"/>
<glyph glyph-name="status-battery" unicode="&#69;" d="M466 381l-420 0c-27 0-46-21-46-45l0-234c0-26 21-45 46-45l420 0c26 0 45 21 45 45l0 233c1 26-20 46-45 46z m-301-177l-67 0c-8 0-15 6-15 14 0 8 7 14 15 14l67 0c8 0 14-6 14-14 1-8-5-14-14-14z m252 0l-18 0 0-18c0-8-6-14-14-14-8 0-14 6-14 14l0 18-18 0c-8 0-15 6-15 14 0 8 7 14 15 14l17 0 0 18c0 8 6 15 14 15 8 0 14-7 14-15l0-18 19 0c8 0 14-6 14-14 1-8-5-14-14-14z m-230 217c0 17-12 33-27 33l-58 0c-14 0-26-14-26-33l0-28 112 0 0 28z m251 3c0 17-11 33-27 33l-57 0c-15 0-27-14-27-33l0-28 112 0 0 28z"/>
<glyph glyph-name="status-fuel" unicode="&#70;" d="M23 14l292 0c13 0 23 11 23 24 0 13-10 24-23 24l-2 0 0 178 29 0c11 0 19-9 19-19l0-67c0-43 34-76 76-76 43 0 76 34 76 76l0 216c0 6-4 15-9 21l-61 61c-11 13-30 13-41 0-12-10-12-29 0-41l53-53 0-204c0-11-7-19-17-21-10 0-19 6-21 17l0 69c0 41-34 76-76 76l-31 0 0 157c0 24-19 43-43 43l-193 0c-24 0-43-19-43-43l0-391-6 0c-14 0-24-11-24-24-3-12 8-23 22-23z m82 413c0 6 5 12 13 12l106 0c6 0 12-5 12-12l0-38c0-7-5-13-12-13l-107 0c-7 0-13 5-13 13l0 38z"/>
<glyph glyph-name="status-circle" unicode="&#71;" d="M512 256c0-141-115-256-256-256-141 0-256 115-256 256 0 141 115 256 256 256 141 0 256-115 256-256z"/>
<glyph glyph-name="other-eye" unicode="&#72;" d="M512 257c0 0 0 2 0 0 0 2 0 2 0 2 0 4-3 7-6 10-15 20-35 37-55 52-43 35-91 63-145 74-32 7-63 7-94 2-29-6-56-16-81-29-40-20-77-48-108-81-6-5-12-11-17-18-7-9-7-19 0-27 15-20 35-37 55-53 43-34 91-62 145-74 32-7 63-7 94-1 29 5 56 15 81 28 40 20 77 49 108 81 6 6 12 12 17 19 3 3 6 7 6 10 0 4 0 4 0 5 0-1 0-1 0 0z m-256-99c-54 0-98 44-98 98 0 54 44 98 98 98 54 0 98-44 98-98 0-54-44-98-98-98z m33 98c0-18-15-33-33-33-18 0-33 15-33 33 0 18 15 33 33 33 18 0 33-15 33-33z"/>
<glyph glyph-name="status-log" unicode="&#121;" d="M474 333c-6 0-10 5-10 10 0 6 4 11 10 11l38 0 0 63-38 0c-6-1-9 4-9 10 0 5 3 9 9 9l38 0 0 22c0 22-13 42-34 50-20 11-44 6-59-10l-401-401c-16-16-20-39-11-61 8-20 28-34 50-34l23 0 0 37c0 6 4 10 10 10 6 0 11-4 11-10l0-37 63 0 0 37c0 6 5 10 10 10 6 0 11-4 11-10l0-37 62 0 0 37c0 6 4 10 10 10 6 0 10-4 10-10l0-37 64 0 0 37c0 6 5 10 10 10 6 0 11-4 11-10l0-37 64 0 0 37c0 6 5 10 11 10 5 0 10-4 10-10l0-37 23 0c30 0 55 25 55 55l0 25-41 0c-6 0-10 5-10 11 0 6 4 10 10 10l38 0 0 64-38 0c-6 0-10 5-10 10 0 6 4 11 10 11l38 0 0 61-38 0c-6 0-10 5-10 11 0 5 4 10 10 10l38 0 0 64-38 0z m-72-220l-212 0 213 213 0-213z"/>
<glyph glyph-name="status-heading" unicode="&#73;" d="M512 259l-136 112 0-75-80 0 0 80 73 0-111 136-112-136 70 0 0-80-80 0 0 75-136-112 136-111 0 88 80 0 0-100-70 0 112-136 111 136-73 0 0 100 80 0 0-88z"/>
<glyph glyph-name="other-call" unicode="&#74;" d="M149 486c10-30 24-61 41-92 19-32-4-44-35-59-55-33 135-237 171-183 19 29 31 51 62 29 29-21 60-36 90-47 25-13 32-31 13-55l-43-56c-133-125-547 318-412 444l58 38c23 14 44 7 55-19z m341-256c-2-15-25-15-25 2 8 133-86 234-219 236-17 0-17 24 0 24 148-2 253-114 244-262z m-121 33c-4-16-28-13-26 3 5 41-30 81-72 77-15 0-17 24-2 26 57 3 106-50 100-106z m-113 143c-15 0-15 25 0 25 101 2 183-87 174-185-1-17-25-14-25 1 6 84-64 161-149 159z"/>
<glyph glyph-name="sort" unicode="&#75;" d="M256 286c-47 0-94 0-141 0-7 0-13 1-20 3-17 4-24 17-17 34 3 7 7 14 13 20 43 48 85 98 128 146 6 6 11 12 19 16 12 8 27 10 39 0 9-7 17-14 25-23 19-21 38-43 56-65 22-26 44-50 66-76 7-8 13-17 14-28 0-11-4-20-16-24-7-2-14-3-22-3-49 0-97 0-144 0z m0-60c47 0 94 0 141 0 8 0 15-1 24-3 14-4 21-15 16-30-5-10-10-18-16-27-40-47-81-93-122-139-7-7-15-14-22-20-12-8-27-8-39 0-8 4-15 10-20 17-43 49-84 97-127 144-4 6-9 11-11 17-10 20 0 37 21 38 7 2 13 2 20 2 44 1 89 1 135 1z"/>
<glyph glyph-name="menu-support" unicode="&#76;" d="M256 512c-142 0-256-114-256-256 0-142 114-256 256-256 142 0 256 114 256 256 0 142-114 256-256 256z m25-385l-49 0 0 142 49 0z m-25 191c-21 0-38 17-38 38 0 20 17 37 38 37 21 0 38-17 38-37 0-21-17-38-38-38z"/>
<glyph glyph-name="other-report-theft" unicode="&#77;" d="M1 282l76 0 0-52-76 0z m433 0l76 0 0-52-76 0z m-70 118l53 54 36-36-53-54z m-133 111l52 0 0-76-52 0z m-173-93l37 37 53-54-36-36z m376-365l0 51-51 0 0 152c0 70-57 127-127 127-70 0-127-57-127-127l0-154-51 0 0-51-51 0 0-51 459 0 0 51-51 0 0 2z m-153 52l-52 0 0 151 52 0z"/>
<glyph glyph-name="other-user-manual" unicode="&#111;" d="M331 491l0-101c0-5 5-9 9-9l102 0c5 0 9 3 10 7 0 3-1 6-3 7l-102 103c-3 4-9 4-11 1-3-3-5-5-5-8z m-284-480l0 490c0 5 6 11 11 11l235 0c6 0 11-6 11-11l0-135c0-6 6-12 12-12l138 0c5 0 11-4 11-11l0-332c0-5-6-11-11-11l-396 0c-5 0-11 6-11 11z"/>
<glyph glyph-name="hint" unicode="&#78;" d="M75 437c-100-99-100-262 0-362 99-101 262-100 362 0 101 99 100 262 0 362-99 101-262 100-362 0z m191-32c22 0 39-18 39-40 0-22-18-40-39-40-21 0-39 18-39 40 0 22 18 40 39 40z m56-265c-1-3-2-6-5-9-15-14-32-24-52-24-10 0-19 0-29 2-16 2-36 22-33 42 2 14 5 28 7 41 4 25 8 50 13 74 0 2 1 3 1 5 0 11-3 14-14 15-4 1-8 1-13 2-5 2-7 6-6 10 1 4 2 6 8 8 3 1 6 1 10 1 12 0 23 0 36 0 13 0 25 0 38 0 9 0 14-5 14-13 0-8-1-15-3-23-5-28-11-56-15-83-2-10-4-18-5-28-1-5 0-9 1-13 2-6 6-10 12-9 5 1 10 2 15 5 3 2 6 5 10 6 7 1 11-3 10-9z"/>
<glyph glyph-name="other-menu-geofence" unicode="&#79;" d="M303 465c0-25-21-46-47-46-26 0-47 21-47 46 0 26 21 47 47 47 26 0 47-21 47-47z m0-209c0-26-21-47-47-47-26 0-47 21-47 47 0 26 21 47 47 47 26 0 47-21 47-47z m0-209c0-26-21-47-47-47-26 0-47 21-47 47 0 25 21 46 47 46 26 0 47-21 47-46z"/>
<glyph glyph-name="other-menu" unicode="&#80;" d="M293 422c0-20-16-37-37-37-21 0-37 17-37 37 0 21 16 38 37 38 21 0 37-17 37-38z m0-166c0-21-16-37-37-37-21 0-37 16-37 37 0 21 16 37 37 37 21 0 37-16 37-37z m0-166c0-21-16-38-37-38-21 0-37 17-37 38 0 20 16 37 37 37 21 0 37-17 37-37z"/>
<glyph glyph-name="other-route" unicode="&#81;" d="M495 298l-197 197c-23 23-61 23-84 0l-197-197c-23-23-23-61 0-84l197-197c23-23 61-23 84 0l197 197c23 23 23 61 0 84z m-223-58l0 32-61 0 0-77c0-7-6-15-16-15-7 0-15 6-15 15l0 77c0 31 31 31 31 31l61 0 0 31 60-47z"/>
</font>
</defs>
</svg>
